# xmcd
#
# Track frame offsets:
#	150
#	16050
#	35612
#	54800
#	71487
#	94412
#	110775
#	124500
#	142275
#	159900
#	180200
#	200507
#	216912
#	230787
#	247287
#	266165
#	286950
#	305380
#	321387
#
# Disc length: 4567
#
# Revision: 13
# Processed by: cddbd v1.5.1PL0 Copyright (c) Steve Scherf et al.
# Submitted via: FreeRIP 2.90 
# Normalized: r12:TDELIM( - )
#
DISCID=2011d513
DTITLE=Various Artist - Kuschel Rock 08 CD 1
DYEAR=1994
DGENRE=Rock
TTITLE0=Mariah Carey - Without
TTITLE1=Joshua Kadison - Jessie
TTITLE2=Bruce Springsteen - Human Touch
TTITLE3=The Police - Every breathe you take
TTITLE4=Duran Duran - Ordinary World
TTITLE5=Haddaway - I miss you
TTITLE6=Enigma - Return to Innocence
TTITLE7=Beautiful World - In the beginning
TTITLE8=Pretenders - I´ll stand by you
TTITLE9=Guns `n' Roses - Don´t cry
TTITLE10=Aerosmith - Cryin´
TTITLE11=Air Supply - Making Love (Out of Nothing at all)
TTITLE12=Faith No More - I´m easy
TTITLE13=Peter Cetera and Amy Grant - The next time I fall
TTITLE14=Celine Dion - Power of Love
TTITLE15=George Michael - Praying for time
TTITLE16=Cher - Just like Jesse James
TTITLE17=The Heights - How do you talk to an angel
TTITLE18=Eros Ramazotti - Un altra te
EXTD=YEAR: 1994 ID3G:  17
EXTT0=
EXTT1=
EXTT2=
EXTT3=
EXTT4=
EXTT5=
EXTT6=
EXTT7=
EXTT8=
EXTT9=
EXTT10=
EXTT11=
EXTT12=
EXTT13=
EXTT14=
EXTT15=
EXTT16=
EXTT17=
EXTT18=
PLAYORDER=
